<svg id="my_feeds_icon-24px" xmlns="http://www.w3.org/2000/svg" width="24" height="24" viewBox="0 0 24 24">
  <rect id="Rectangle_769" data-name="Rectangle 769" width="24" height="24" fill="none"/>
  <path id="fi-rr-browser" d="M15.833,1H4.167A4.172,4.172,0,0,0,0,5.167v10a4.172,4.172,0,0,0,4.167,4.167H15.833A4.172,4.172,0,0,0,20,15.167v-10A4.172,4.172,0,0,0,15.833,1ZM4.167,2.667H15.833a2.5,2.5,0,0,1,2.5,2.5V6H1.667V5.167a2.5,2.5,0,0,1,2.5-2.5Zm11.667,15H4.167a2.5,2.5,0,0,1-2.5-2.5v-7.5H18.333v7.5A2.5,2.5,0,0,1,15.833,17.667Zm0-6.667a.833.833,0,0,1-.833.833H5a.833.833,0,1,1,0-1.667H15A.833.833,0,0,1,15.833,11ZM12.5,14.333a.833.833,0,0,1-.833.833H5A.833.833,0,1,1,5,13.5h6.667A.833.833,0,0,1,12.5,14.333Zm-10-10a.833.833,0,1,1,.833.833A.833.833,0,0,1,2.5,4.333Zm2.5,0a.833.833,0,1,1,.833.833A.833.833,0,0,1,5,4.333Zm2.5,0a.833.833,0,1,1,.833.833A.833.833,0,0,1,7.5,4.333Z" transform="translate(2 2)" fill="#888"/>
</svg>
