<svg id="Layer_1" data-name="Layer 1" xmlns="http://www.w3.org/2000/svg" xmlns:xlink="http://www.w3.org/1999/xlink" width="110" height="32" viewBox="0 0 110 32">
  <defs>
    <linearGradient id="linear-gradient" x1="-0.241" y1="0.5" x2="1.281" y2="0.5" gradientUnits="objectBoundingBox">
      <stop offset="0" stop-color="#37afad"/>
      <stop offset="1" stop-color="#238892"/>
    </linearGradient>
    <linearGradient id="linear-gradient-2" x1="-0.219" y1="0.5" x2="1.306" y2="0.5" xlink:href="#linear-gradient"/>
    <linearGradient id="linear-gradient-3" x1="-4.653" y1="0.5" x2="6.249" y2="0.5" xlink:href="#linear-gradient"/>
    <linearGradient id="linear-gradient-4" x1="-0.001" y1="0.5" x2="1" y2="0.5" xlink:href="#linear-gradient"/>
    <linearGradient id="linear-gradient-5" x1="0" y1="0.5" x2="1" y2="0.5" xlink:href="#linear-gradient"/>
    <linearGradient id="linear-gradient-6" x1="0" y1="0.5" x2="1" y2="0.5" xlink:href="#linear-gradient"/>
  </defs>
  <path id="Path_499" data-name="Path 499" d="M116.35,91.456H118l-.821-2.466Z" transform="translate(-101.592 -77.716)" fill="none"/>
  <g id="Group_12968" data-name="Group 12968">
    <path id="Path_500" data-name="Path 500" d="M36.574,108.43H24.45l1.353,4.04h6.18A11.224,11.224,0,0,1,30,117.195a11.471,11.471,0,0,1-19.7-1.9H5.39a16.046,16.046,0,0,0,26.4,6.782A15.8,15.8,0,0,0,36.574,108.43Z" transform="translate(-4.706 -94.525)" fill="url(#linear-gradient)"/>
    <path id="Path_501" data-name="Path 501" d="M6.3,13.729H4.779A11.443,11.443,0,0,1,24.247,8.047a11.542,11.542,0,0,1,2.015,2.864h4.962A16.079,16.079,0,0,0,8.409,1.879,15.921,15.921,0,0,0,.086,17.769H10.25l1.362-4.04Z" transform="translate(0.002 0.028)" fill="url(#linear-gradient-2)"/>
    <path id="Path_502" data-name="Path 502" d="M107.293,108.43h-.251l-1.352,4.04h4.343l-1.345-4.04Z" transform="translate(-92.19 -94.6)" fill="url(#linear-gradient-3)"/>
    <path id="Path_503" data-name="Path 503" d="M70.687,143.848a.618.618,0,0,0,.595.8H73.2a.553.553,0,0,0,.572-.412L75.1,140.28H71.886Z" transform="translate(-61.633 -122.387)" fill="url(#linear-gradient-4)"/>
    <path id="Path_504" data-name="Path 504" d="M95.041,56.047l.821,2.466h3.219L96.8,51.674a.591.591,0,0,0-.595-.412H93.874a.554.554,0,0,0-.573.412L91,58.512h3.212Z" transform="translate(-79.363 -44.716)" fill="url(#linear-gradient-5)"/>
    <path id="Path_505" data-name="Path 505" d="M141.909,146.229a.568.568,0,0,0,.6.412h1.9a.618.618,0,0,0,.595-.8l-1.851-5.559H139.93Z" transform="translate(-122.089 -122.38)" fill="url(#linear-gradient-6)"/>
  </g>
  <g id="Group_2108" data-name="Group 2108" transform="translate(40 5)">
    <path id="Path_506" data-name="Path 506" d="M271.4,73.142l.494-1.125a4.324,4.324,0,0,0,2.572.857c1.215,0,1.726-.435,1.726-1.013,0-1.682-4.632-.57-4.632-3.477,0-1.258,1-2.327,3.14-2.327a4.942,4.942,0,0,1,2.6.69l-.458,1.125a4.325,4.325,0,0,0-2.15-.612c-1.2,0-1.692.468-1.692,1.057,0,1.659,4.623.57,4.623,3.442,0,1.247-1.015,2.317-3.154,2.317A5.026,5.026,0,0,1,271.4,73.142Z" transform="translate(-270.972 -66.057)" fill="#221f1f"/>
    <path id="Path_507" data-name="Path 507" d="M317.567,73.239v1.215H311.72V66.66h5.691v1.205h-4.243V69.9h3.764v1.2h-3.764v2.15Z" transform="translate(-303.628 -66.545)" fill="#221f1f"/>
    <path id="Path_508" data-name="Path 508" d="M351.316,72.649h-3.9l-.776,1.8H345.15l3.509-7.793h1.426l3.52,7.793h-1.521Zm-.479-1.141L349.366,68.1l-1.46,3.408Z" transform="translate(-330.883 -66.545)" fill="#221f1f"/>
    <path id="Path_509" data-name="Path 509" d="M396.327,67.9v2.378h3.766v1.234h-3.766v2.984H394.88V66.7h5.691v1.2Z" transform="translate(-371.264 -66.578)" fill="#221f1f"/>
    <path id="Path_510" data-name="Path 510" d="M430.841,72.649h-3.9l-.76,1.8H424.69L428.2,66.66h1.427l3.518,7.793h-1.521Zm-.479-1.141-1.469-3.4-1.46,3.408Z" transform="translate(-395.491 -66.545)" fill="#221f1f"/>
    <path id="Path_511" data-name="Path 511" d="M479.474,74.5l-1.593-2.281a2.653,2.653,0,0,1-.3.011h-1.753v2.281H474.38V66.72h3.209c2.049,0,3.319,1.047,3.319,2.773a2.513,2.513,0,0,1-1.659,2.471l1.793,2.562Zm-1.96-6.571h-1.686v3.108h1.694c1.268,0,1.926-.57,1.926-1.561S478.782,67.931,477.515,67.931Z" transform="translate(-435.839 -66.594)" fill="#221f1f"/>
    <path id="Path_512" data-name="Path 512" d="M523.027,73.239v1.215H517.18V66.66h5.691v1.205h-4.243V69.9h3.764v1.2h-3.764v2.15Z" transform="translate(-470.594 -66.545)" fill="#221f1f"/>
    <path id="Path_513" data-name="Path 513" d="M561.542,74.5l-1.593-2.281a2.636,2.636,0,0,1-.3.011h-1.76v2.281H556.44V66.72h3.209c2.049,0,3.319,1.047,3.319,2.773a2.511,2.511,0,0,1-1.659,2.471l1.792,2.562Zm-1.954-6.571h-1.694v3.108h1.694c1.27,0,1.925-.57,1.925-1.561S560.852,67.931,559.588,67.931Z" transform="translate(-502.603 -66.594)" fill="#221f1f"/>
    <path id="Path_514" data-name="Path 514" d="M597.05,66.64h1.2l-.1,3.085h-1.015Z" transform="translate(-535.494 -66.529)" fill="#221f1f"/>
    <path id="Path_515" data-name="Path 515" d="M608.71,73.142l.5-1.125a4.33,4.33,0,0,0,2.574.857c1.215,0,1.726-.435,1.726-1.013,0-1.682-4.634-.57-4.634-3.477,0-1.258,1-2.327,3.142-2.327a4.942,4.942,0,0,1,2.595.69l-.456,1.125a4.33,4.33,0,0,0-2.15-.612c-1.2,0-1.693.468-1.693,1.057,0,1.659,4.623.57,4.623,3.442,0,1.247-1.013,2.317-3.152,2.317A5.04,5.04,0,0,1,608.71,73.142Z" transform="translate(-544.937 -66.057)" fill="#221f1f"/>
    <path id="Path_516" data-name="Path 516" d="M275.292,142.969H271.4l-.76,1.8H269.15l3.507-7.793h1.407l3.52,7.793h-1.521Zm-.479-1.141-1.469-3.408-1.46,3.408Z" transform="translate(-269.15 -123.732)" fill="#221f1f"/>
    <path id="Path_517" data-name="Path 517" d="M325.679,137v7.793h-1.192l-4.3-5.279v5.279H318.75V137h1.188l4.3,5.279V137Z" transform="translate(-309.322 -123.748)" fill="#221f1f"/>
    <path id="Path_518" data-name="Path 518" d="M363.29,140.391a4.221,4.221,0,0,1,7.267-2.707l-.935.88a2.736,2.736,0,0,0-2.091-.914,2.74,2.74,0,1,0,0,5.48,2.712,2.712,0,0,0,2.091-.924l.935.89a4.221,4.221,0,0,1-7.267-2.7Z" transform="translate(-345.613 -123.246)" fill="#221f1f"/>
    <path id="Path_519" data-name="Path 519" d="M415.748,137v7.793H414.3v-3.345h-4.032v3.345H408.82V137h1.448v3.212H414.3V137Z" transform="translate(-382.592 -123.748)" fill="#221f1f"/>
    <path id="Path_520" data-name="Path 520" d="M453.36,140.391a4.2,4.2,0,1,1,4.2,4.009A3.994,3.994,0,0,1,453.36,140.391Zm6.94,0a2.741,2.741,0,1,0-2.74,2.739,2.661,2.661,0,0,0,2.74-2.739Z" transform="translate(-418.778 -123.246)" fill="#221f1f"/>
    <path id="Path_521" data-name="Path 521" d="M510.732,144.793l-1.593-2.281a2.623,2.623,0,0,1-.3.011h-1.76v2.27H505.63V137h3.208c2.049,0,3.319,1.045,3.319,2.773a2.492,2.492,0,0,1-1.659,2.462l1.794,2.558Zm-1.96-6.571h-1.694v3.108h1.694c1.27,0,1.927-.57,1.927-1.559s-.658-1.553-1.927-1.553Z" transform="translate(-461.22 -123.748)" fill="#221f1f"/>
  </g>
</svg>
