<svg id="messages_icon-24px" xmlns="http://www.w3.org/2000/svg" width="24" height="24" viewBox="0 0 24 24">
  <rect id="Rectangle_770" data-name="Rectangle 770" width="24" height="24" fill="none"/>
  <g id="fi-rr-comment" transform="translate(2.001 2.024)">
    <path id="Path_342" data-name="Path 342" d="M19.98,9.359A10,10,0,1,0,10,19.976h5.813a4.167,4.167,0,0,0,4.162-4.162Zm-1.665,6.454a2.5,2.5,0,0,1-2.5,2.5H10A8.359,8.359,0,0,1,3.78,15.528,8.256,8.256,0,0,1,1.719,9.023,8.361,8.361,0,0,1,8.925,1.729a8.8,8.8,0,0,1,1.082-.068,8.259,8.259,0,0,1,5.31,1.915,8.359,8.359,0,0,1,3,5.862Z" transform="translate(0 0)" fill="#888"/>
    <path id="Path_343" data-name="Path 343" d="M7.832,8.665h3.33a.832.832,0,0,0,0-1.665H7.832a.832.832,0,0,0,0,1.665Z" transform="translate(-1.173 -1.177)" fill="#888"/>
    <path id="Path_344" data-name="Path 344" d="M14.492,11H7.832a.832.832,0,1,0,0,1.665h6.66a.832.832,0,1,0,0-1.665Z" transform="translate(-1.173 -1.847)" fill="#888"/>
    <path id="Path_345" data-name="Path 345" d="M14.492,15H7.832a.832.832,0,0,0,0,1.665h6.66a.832.832,0,0,0,0-1.665Z" transform="translate(-1.173 -2.517)" fill="#888"/>
  </g>
</svg>
