<svg id="notifications_icon-24px" xmlns="http://www.w3.org/2000/svg" width="24" height="24" viewBox="0 0 24 24">
  <path id="fi-rr-bell" d="M18.958,11.384l-1.583-5.7a7.767,7.767,0,0,0-15.064.395L1.085,11.595a4.166,4.166,0,0,0,4.067,5.07H6.08a4.166,4.166,0,0,0,8.166,0h.7a4.166,4.166,0,0,0,4.015-5.281Zm-8.795,6.948a2.5,2.5,0,0,1-2.346-1.666H12.51a2.5,2.5,0,0,1-2.346,1.666Zm6.771-4.32A2.481,2.481,0,0,1,14.944,15H5.152a2.5,2.5,0,0,1-2.44-3.042L3.937,6.444a6.1,6.1,0,0,1,11.832-.31l1.583,5.7a2.481,2.481,0,0,1-.418,2.181Z" transform="translate(2.014 1.998)" fill="#888"/>
  <rect id="Rectangle_768" data-name="Rectangle 768" width="24" height="24" fill="none"/>
</svg>
