<svg id="fi-rr-world" xmlns="http://www.w3.org/2000/svg" width="24" height="24" viewBox="0 0 24 24">
  <rect id="Rectangle_1577" data-name="Rectangle 1577" width="24" height="24" fill="none"/>
  <path id="fi-rr-world-2" data-name="fi-rr-world" d="M10,0A10,10,0,1,0,20,10,10,10,0,0,0,10,0Zm8.333,10a8.282,8.282,0,0,1-1.385,4.59l-.993-.994a.417.417,0,0,1-.122-.294v-.8a2.5,2.5,0,0,0-2.5-2.5h-2.5A.833.833,0,0,1,10,9.167V8.75a.417.417,0,0,1,.417-.417A2.083,2.083,0,0,0,12.5,6.25V5.417A.417.417,0,0,1,12.917,5h1.149a2.1,2.1,0,0,0,1.472-.61l.314-.314A8.307,8.307,0,0,1,18.333,10Zm-16.626.8,2.632,2.632a2.482,2.482,0,0,0,1.768.732H8.333A.833.833,0,0,1,9.167,15v3.291A8.347,8.347,0,0,1,1.707,10.8Zm9.126,7.488V15a2.5,2.5,0,0,0-2.5-2.5H6.108a.833.833,0,0,1-.59-.244L1.8,8.541A8.315,8.315,0,0,1,14.547,3.025l-.187.187a.422.422,0,0,1-.294.122H12.917a2.083,2.083,0,0,0-2.083,2.083V6.25a.417.417,0,0,1-.417.417A2.083,2.083,0,0,0,8.333,8.75v.417a2.5,2.5,0,0,0,2.5,2.5h2.5a.833.833,0,0,1,.833.833v.8a2.1,2.1,0,0,0,.61,1.472l1.114,1.114a8.309,8.309,0,0,1-5.057,2.4Z" transform="translate(2 2)" fill="#888"/>
</svg>
